<?xml version="1.0" encoding="UTF-8" standalone="no"?>
<svg
   xmlns:dc="http://purl.org/dc/elements/1.1/"
   xmlns:cc="http://creativecommons.org/ns#"
   xmlns:rdf="http://www.w3.org/1999/02/22-rdf-syntax-ns#"
   xmlns:svg="http://www.w3.org/2000/svg"
   xmlns="http://www.w3.org/2000/svg"
   xmlns:sodipodi="http://sodipodi.sourceforge.net/DTD/sodipodi-0.dtd"
   xmlns:inkscape="http://www.inkscape.org/namespaces/inkscape"
   inkscape:version="1.0 (4035a4fb49, 2020-05-01)"
   sodipodi:docname="lakehouse-logo.svg"
   id="svg889"
   preserveAspectRatio="xMidYMid meet"
   viewBox="0 0 220.0166 60.808247"
   height="81.07766"
   width="293.35547"
   version="1.0">
  <defs
     id="defs893" />
  <sodipodi:namedview
     units="px"
     inkscape:current-layer="svg889"
     inkscape:window-maximized="1"
     inkscape:window-y="-8"
     inkscape:window-x="-8"
     inkscape:cy="-42.282325"
     inkscape:cx="185.91929"
     inkscape:zoom="1.4040747"
     fit-margin-bottom="0"
     fit-margin-right="0"
     fit-margin-left="0"
     fit-margin-top="0"
     showgrid="false"
     id="namedview891"
     inkscape:window-height="657"
     inkscape:window-width="1280"
     inkscape:pageshadow="2"
     inkscape:pageopacity="0"
     guidetolerance="10"
     gridtolerance="10"
     objecttolerance="10"
     borderopacity="1"
     bordercolor="#666666"
     pagecolor="#ffffff" />
  <metadata
     id="metadata833">
Created by potrace 1.10, written by Peter Selinger 2001-2011
<rdf:RDF>
  <cc:Work
     rdf:about="">
    <dc:format>image/svg+xml</dc:format>
    <dc:type
       rdf:resource="http://purl.org/dc/dcmitype/StillImage" />
    <dc:title></dc:title>
  </cc:Work>
</rdf:RDF>
</metadata>
  <path
     d="m 26.686999,0.04343741 c -0.4115,0.0457 -1.0286,0.2171499 -1.3829,0.3885899 -0.7201,0.34287 -1.4744,0.40002 -1.9316,0.13715 -0.3657,-0.20573 -0.8,-0.20573 -1.0743,0 -0.1143,0.08 -0.5029,0.24001 -0.8572,0.34287 -0.354299,0.10285999 -0.8114,0.27429999 -1.0172,0.37715999 -0.468599,0.22858 -1.085699,0.21715 -1.451499,-0.0229 -0.5829,-0.37715999 -1.120001,-0.10286 -1.942901,0.99434 -0.1829,0.24001 -0.6629,0.68574 -1.074399,0.97147 -1.234301,0.88004 -1.4743,1.00576 -2.445801,1.20006 -0.5829,0.11429 -0.7086,0.19429 -0.8686,0.49145 -0.3429,0.64003 -1.4058,1.89723 -1.6572,1.96581 -0.1257,0.0343 -0.56,0.22858 -0.9601,0.4343 -0.3999995,0.20573 -1.0399995,0.44574 -1.4285995,0.51431 -0.5372,0.1143 -0.7771996,0.22859 -1.0171996,0.49146 -0.1714,0.19429 -0.3199999,0.41145 -0.3199999,0.49145 0,0.13715 -0.1372,0.48002 -0.5943,1.4629297 -0.1829,0.40001 -1.4744,1.65722 -1.703,1.65722 -0.1371,0 -0.8114,1.05148 -0.9829,1.54293 -0.1028,0.29716 -0.1371,0.65146 -0.08,1.05148 0.057,0.51431 0.046,0.59431 -0.16,0.7086 -0.3429,0.18287 -1.2,1.34864 -1.44,1.95438 -0.1372,0.34288 -0.2286,0.94862 -0.2629,1.77151 -0.034,0.83433 -0.1486,1.57722 -0.3315,2.22868 -0.1485,0.52574 -0.2743,1.06291 -0.2743,1.18863 0,0.11429 -0.2514,0.49145 -0.5714,0.8229 -0.4,0.42287 -0.5715,0.69717 -0.5715,0.91433 0,0.32001 0.4343,1.30292 0.5829,1.30292 0.046,0 0.1943,0.18286 0.3315,0.40001 0.2285,0.37717 0.24,0.49146 0.1714,1.61151 -0.069,0.93719 -0.1372,1.28006 -0.3315,1.56579 -0.6628,1.02862 -0.6971,1.12005 -0.6857,2.19439 0,0.84575 0.057,1.12005 0.2743,1.5315 l 0.2743,0.50288 -0.24,0.41145 c -0.4,0.70861 -0.5372,1.52007 -0.3657,2.18296 0.1371,0.51431 0.1257,0.58289 -0.08,0.81147 C 0.0457,36.833717 0,37.050877 0,37.759477 c 0,0.77718 0.057,0.97148 0.3772,1.57722 0.24,0.44574 0.3657,0.85718 0.3657,1.15434 0,0.24001 0.1029,0.77718 0.2286,1.16577 0.1257,0.38859 0.2286,0.91433 0.2286,1.15434 0,0.5486 0.1714,0.99434 0.5143,1.36007 0.1485,0.16 0.48,0.73146 0.7429,1.28006 0.2628,0.5486 0.5257,1.02862 0.5828,1.07434 0.057,0.0343 0.1029,0.18286 0.1029,0.34287 0,0.40002 0.64,1.92009 1.1315,2.67441 0.96,1.48579 2.1487,2.77728 3.1200999,3.38302 0.6171996,0.40002 0.8457996,0.65146 1.1771996,1.38292 0.16,0.33145 0.3429,0.61718 0.4229,0.61718 0.08,0.0114 0.4115,0.0343 0.72,0.0457 0.7087005,0.0229 1.6000995,0.24001 2.0573005,0.48003 0.4229,0.22858 1.2801,1.09719 2.1372,2.1601 0.8001,1.00576 1.497199,1.5315 2.674399,2.01152 0.7887,0.32002 1.0515,0.36573 2.1602,0.40002 1.2,0.0343 2.3772,0.21716 3.4858,0.5486 0.7544,0.21715 2.8345,0.30859 4.286,0.17144 0.6857,-0.0686 1.9772,-0.13715 2.8572,-0.16001 0.8915,-0.0114 1.6801,-0.0686 1.7487,-0.11429 0.1829,-0.11429 0.1829,-1.46293 0,-1.6458 -0.1715,-0.17143 -3.7831,-0.17143 -5.6917,-0.0114 -1.9087,0.17143 -2.1944,0.14857 -4.1488,-0.29716 -2.2287,-0.52574 -2.6744,-0.68575 -3.4744,-1.26863 -0.1943,-0.14858 -0.4001,-0.2743 -0.4343,-0.2743 -0.046,0 -0.2743,-0.16001 -0.5144,-0.34288 -0.24,-0.19429 -0.48,-0.34287 -0.5486,-0.34287 -0.068,0 -0.1371,-0.0343 -0.16,-0.0914 -0.011,-0.0457 -0.3543,-0.37716 -0.7543,-0.74289 -0.7657,-0.69718 -1.6801,-1.32578 -2.5372,-1.76009 -0.2858,-0.13715 -0.7658,-0.46859 -1.0858,-0.72003 -0.3086,-0.25144 -0.8572,-0.67432 -1.1886,-0.93719 -1.0057995,-0.76575 -3.554499,-3.39445 -4.240199,-4.35449 -0.3429,-0.49146 -0.8115,-1.24578 -1.0515,-1.69151 -0.5486,-1.04005 -1.4629,-3.74875 -1.4629,-4.34307 0,-0.14858 -0.069,-0.65146 -0.1601,-1.13148 -0.3657,-1.8858 -0.5257,-2.96014 -0.5257,-3.49731 0,-0.30859 -0.08,-1.1772 -0.1714,-1.93152 -0.1029,-0.8229 -0.16,-2.41154 -0.16,-3.94305 0,-1.5315 0.057,-3.12014 0.16,-3.94304 0.091,-0.75432 0.1714,-1.62294 0.1714,-1.92009 0,-0.29716 0.08,-0.91433 0.1714,-1.3715 0.091,-0.45716 0.2515,-1.23434 0.3543,-1.73722 0.2172,-1.10863 0.4801,-2.21725 0.6858,-2.91443 0.4229,-1.41721 0.6286,-2.05724 0.8457,-2.62869 0.1372,-0.34288 0.2858,-0.75433 0.3315,-0.91433 0.057,-0.16001 0.24,-0.5486 0.4114,-0.85719 1.1887,-2.14867 2.9029995,-4.01162 5.474599,-5.9431397 1.4286,-1.08576 3.2344,-2.34297 3.3487,-2.34297 0.046,0 0.4572,-0.24001 0.9372,-0.52574 0.48,-0.28572 0.9601,-0.57145 1.0743,-0.6286 0.4801,-0.26287 1.5315,-0.77718 1.7944,-0.89147 0.16,-0.0686 0.3657,-0.17144 0.4572,-0.22858 0.8572,-0.50288 4.7202,-1.84009 5.3374,-1.84009 0.1828,0 0.5943,-0.08 0.9029,-0.17144 0.72,-0.21715 3.863,-0.34287 4.8459,-0.19429 0.9372,0.13715 1.0858,0.0571 1.0858,-0.57146 v -0.49145 l 0.6857,-0.0343 c 0.8001,-0.0457 1.2001,0.0343 1.2001,0.25143999 0,0.08 -0.1829,0.49146 -0.4,0.91433 -0.2172,0.42288 -0.4,0.92576 -0.4,1.12006 0,0.49145 0.4228,1.18863 0.8457,1.38292 1.0972,0.52574 1.3829,0.59431 2.5258,0.59431 1.2458,0 1.7944,-0.16 2.5716,-0.75432 0.2171,-0.16 0.8572,-0.53717 1.4058,-0.83432 0.88,-0.4686 1.0857,-0.52574 1.7258,-0.52574 1.04,0 2.1258,0.41145 2.1258,0.80004 0,0.0343 -0.24,0.25144 -0.5258,0.46859 -0.6971,0.51431 -1.0743,1.10862 -1.0743,1.70294 0,0.41145 0.08,0.5486 0.5943,1.09719 0.7772,0.83433 1.4972,1.33721 2.2287,1.60008 0.5715,0.20572 0.6286,0.20572 1.943,0 0.7428,-0.11429 1.7143,-0.28573 2.1486,-0.36573 1.1087,-0.21716 1.1429,-0.21716 1.8401,0.26287 0.3543,0.24001 0.8458,0.57145 1.1086,0.73146 0.3543,0.20573 0.4801,0.36573 0.4801,0.5714597 0,0.21715 -0.069,0.28573 -0.3429,0.30858 -0.5486,0.0457 -1.2229,0.37716 -1.6801,0.81147 -0.5372,0.49145 -0.56,0.91433 -0.1371,1.82866 0.16,0.3543 0.3771,0.81147 0.468601,1.01719 0.251399,0.52574 1.1886,1.33721 1.8286,1.55436 0.9258,0.32002 2.3087,0.64003 2.8116,0.64003 0.4686,0 1.2115,0.28573 1.5658,0.59432 0.228499,0.19429 0.9143,1.07433 0.9143,1.17719 0,0.0343 0.1257,0.24002 0.274299,0.43431 0.1486,0.20572 0.2972,0.46859 0.32,0.59431 0.034,0.25145 -0.046,0.26287 -1.0629,0.1143 -0.6057,-0.0914 -1.2915,0.08 -1.6687,0.42287 -0.4,0.36573 -0.5371,1.1772 -0.3771,2.22868 0.240001,1.5315 0.8686,2.42297 2.434401,3.41731 0.479999,0.30858 1.1543,0.73146 1.485799,0.93718 0.9143,0.58289 0.994301,0.7429 1.44,2.903 0.1143,0.52574 -0.046,0.72003 -0.4114,0.51431 -1.4172,-0.8229 -1.9087,-0.86861 -2.6173,-0.26287 -0.6514,0.56003 -0.9029,1.31435 -0.9029,2.75442 0,1.44007 0.1257,1.73722 1.4287,3.48588 1.3143,1.73722 1.3029,1.71437 1.2115,2.61727 -0.2172,2.25153 -0.3315,2.4344 -0.9715,1.62293 -0.4229,-0.52574 -1.2344,-1.04005 -1.6687,-1.04005 -0.7886,0 -1.6229,0.75432 -2.2972,2.0801 -0.3658,0.72003 -0.3886,0.84575 -0.3886,1.89723 0,0.73147 0.057,1.18863 0.1486,1.33721 0.32,0.48002 0.5943,1.71437 0.5828,2.6287 0,0.75432 -0.057,1.01719 -0.2971,1.49721 -0.32,0.60574 -0.8458,1.30292 -0.9943,1.30292 -0.091,0 -0.4686,-0.80004 -0.4686,-0.99433 0,-0.25144 -0.7544,-1.05148 -1.1544,-1.23435 -0.5486,-0.25144 -0.7886,-0.19429 -1.8286,0.50288 -1.1887,0.77718 -1.7373,1.3715 -1.9658,2.09153 -0.2058,0.67432 -0.5372,3.07444 -0.5372,3.85161 0,0.4686 -0.046,0.56003 -0.6172,1.08577 -1.2,1.14291 -1.5772,1.4515 -1.7029,1.40578 -0.08,-0.0229 -0.1486,-0.26287 -0.16,-0.5486 -0.057,-1.00576 -0.2743,-1.66865 -0.6858,-2.06867 -0.3771,-0.3543 -0.4343,-0.37716 -1.2115,-0.36573 -1.3029,0.0229 -2.7772,0.72004 -3.4973,1.63437 -0.2628,0.34287 -0.8686,1.49721 -1.5315,2.96014 -0.2857,0.60574 -0.9143,1.01719 -2.2058,1.44007 -0.8229,0.26287 -1.0743,0.24001 -1.0743,-0.08 0.011,-0.13715 0.08,-0.37716 0.1714,-0.53717 0.091,-0.16 0.16,-0.59431 0.1714,-0.9829 0,-1.33721 -0.6743,-1.82866 -2.7201,-1.95438 -0.9029,-0.0571 -0.9486,-0.0686 -1.12,-0.40002 l -0.1829,-0.34287 -2.8687,0.0686 c -1.5887,0.0343 -3.3602,0.10287 -3.9431,0.13715 -1.7372,0.11429 -2.8344,-0.34287 -6.0802,-2.5144 -1.0972,-0.7429 -3.9202,-2.82299 -4.7431,-3.49731 -0.4458,-0.37716 -3.0173,-2.94871 -3.3373,-3.34873 -0.4000995,-0.50288 -1.2114995,-1.90867 -1.5772995,-2.7087 C 7.8403999,41.634017 7.2918,39.028177 7.0289,36.170907 c -0.069,-0.66289 -0.16,-1.50865 -0.2286,-1.89724 -0.1486,-0.9029 -0.1486,-5.42883 0,-6.42316 0.069,-0.42288 0.16,-1.2572 0.2286,-1.85152 0.2286,-2.20582 0.7199999,-4.46878 1.4743995,-6.74318 0.4114,-1.24577 1.2,-2.89156 1.5771995,-3.31444 0.1486,-0.16001 0.2629,-0.32002 0.2629,-0.3543 0,-0.0457 0.2742,-0.40002 0.6057,-0.80004 0.6972,-0.86861 2.1372,-2.20582 3.0516,-2.84585 0.2171,-0.16001 0.4686,-0.3543 0.5486,-0.43431 0.2743,-0.25144 3.0287,-2.0458097 3.6801,-2.3886797 1.9087,-1.0172 2.8687,-1.47436 4.1145,-1.93152 0.4115,-0.14858 0.8458,-0.32002 0.9715,-0.37717 0.2857,-0.12572 1.0286,-0.33144 2.0001,-0.53716 0.4114,-0.08 1.0058,-0.20573 1.3143,-0.2743 0.3315,-0.08 1.383,-0.11429 2.5373,-0.0914 2.0915,0.0343 2.343,-0.0114 2.103,-0.44573 -0.2172,-0.42288 -3.063,-0.44574 -5.3832,-0.0343 -1.2,0.20573 -3.543,0.92576 -4.5716,1.39435 -2.0115,0.91433 -5.2688,2.66299 -5.486,2.94872 -0.034,0.0343 -0.2628,0.19429 -0.5143,0.3428697 -0.2514,0.14858 -0.48,0.30859 -0.5143,0.3543 -0.034,0.0343 -0.24,0.1943 -0.4572,0.34288 -1.2114,0.82289 -3.1201,2.52583 -3.863,3.45159 -0.3543,0.45716 -0.6742995,0.84575 -0.7085995,0.88004 -0.1257,0.12572 -0.88,1.32578 -1.0058,1.60008 -0.069,0.16 -0.2857,0.64003 -0.4686,1.0629 -0.1943,0.43431 -0.3543,0.8229 -0.3543,0.86862 0,0.13715 -0.4570996,1.63436 -0.5827995,1.89723 -0.1258,0.26287 -0.2401,0.80004 -0.7772,3.54303 -0.4801,2.49154 -0.6629,5.8517 -0.4801,9.33759 0.1372,2.75441 0.1715,3.10872 0.7429,6.43459 0.4229,2.4344 1.2114995,4.30878 2.5829995,6.17172 0.4686,0.6286 2.2515995,2.49155 2.9715995,3.08586 1.8744,1.57722 3.5773,2.84585 5.886,4.37735 1.1086,0.7429 2.7773,1.73723 2.903,1.73723 0.034,0 0.2057,0.08 0.3886,0.17144 0.5829,0.29715 1.8629,0.40002 3.8516,0.28573 2.3658,-0.13715 5.2688,-0.13715 5.4631,-0.0114 0.091,0.0571 0.1372,0.26287 0.1143,0.53716 l -0.034,0.43431 1.1429,0.0114 c 1.4744,0.0114 1.8172,0.16001 1.863,0.81147 0.023,0.36573 -0.08,0.67432 -0.4915,1.47435 -0.5372,1.05148 -0.64,1.58865 -0.3314,1.70294 0.2971,0.11429 0.6743,0.08 1.1086,-0.10286 0.2286,-0.0914 0.5829,-0.17144 0.8,-0.17144 0.2058,0 0.7429,-0.12572 1.2001,-0.2743 1.7944,-0.58288 2.8573,-1.71436 3.5202,-3.72589 0.3885,-1.20006 1.7715,-2.1601 3.1772,-2.20582 0.7772,-0.0343 0.903,0.18287 0.7887,1.29149 -0.046,0.4686 -0.092,1.18863 -0.092,1.60008 v 0.74289 l 0.3543,-0.0114 c 0.1943,-0.0114 0.4915,-0.0914 0.6401,-0.17143 0.4457,-0.25144 1.6,-1.05148 1.8286,-1.28007 0.1143,-0.10286 0.2515,-0.19429 0.2972,-0.19429 0.2057,0 1.2229,-1.15434 1.3715,-1.55436 0.1485,-0.43431 0.1943,-0.67432 0.48,-2.96014 0.16,-1.23435 0.3886,-1.77151 1.0515,-2.45726 1.3829,-1.41721 2.0229,-1.3715 2.3772,0.17144 0.2515,1.10862 0.5486,1.93152 0.7201,2.04581 0.24,0.16 0.6514,-0.20573 1.4629,-1.30292 0.9257,-1.23435 1.3143,-2.06867 1.4515,-3.02872 0.16,-1.15434 -0.1143,-2.66298 -0.6286,-3.42873 -0.08,-0.12572 -0.1486,-0.5486 -0.1486,-0.99434 0,-0.65146 0.069,-0.91433 0.3657,-1.5315 0.4343,-0.89147 1.0172,-1.46292 1.383,-1.34863 0.3657,0.11429 0.5257,0.2743 1.3372,1.40578 0.5486,0.76575 0.8114,1.04005 0.9943,1.04005 0.32,0 0.4343,-0.21716 0.6057,-1.14291 0.08,-0.41145 0.1943,-0.86862 0.2515,-1.02862 0.069,-0.16001 0.16,-0.5486 0.2057,-0.85719 0.057,-0.32001 0.16,-0.91433 0.24,-1.33721 l 0.1486,-0.76575 -0.6515,-0.94861 c -0.3543,-0.52574 -0.96,-1.3715 -1.3372,-1.88581 -0.96,-1.29149 -1.0629,-1.63436 -0.8572,-2.72013 0.091,-0.48002 0.2286,-0.97147 0.2858,-1.08576 0.2628,-0.49146 0.8686,-0.58289 1.4286,-0.21716 0.1943,0.11429 0.4229,0.25144 0.5143,0.29716 0.091,0.0343 0.3429,0.21715 0.5486,0.40002 0.4343,0.36573 0.9029,0.51431 1.1544,0.3543 0.2628,-0.16001 0.2857,-0.66289 0.091,-1.46292 -0.1029,-0.37717 -0.2057,-0.89148 -0.24,-1.14292 -0.24,-1.63436 -0.4343,-2.40011 -0.6743,-2.66298 -0.2172,-0.24001 -1.1087,-0.89147 -1.6573,-1.22292 -0.3085,-0.18286 -1.5315,-1.01719 -1.9543,-1.32577 -0.5601,-0.41145 -0.8001,-0.97148 -0.8801,-2.0801 -0.068,-0.91433 -0.068,-0.97148 0.1943,-1.14291 0.1486,-0.1143 0.4,-0.1943 0.56,-0.1943 0.4115,0 1.7487,0.29716 2.0344,0.44574 0.4915,0.26287 0.9372,0.0457 0.9372,-0.4686 0,-0.32001 -2.3887,-4.12591 -2.7087,-4.3202 -0.3086,-0.1943 -0.9715,-0.36574 -2.7773,-0.7429 -1.7372,-0.36573 -2.1715,-0.53716 -2.5715,-1.02862 -0.5029,-0.61717 -0.9943,-1.62293 -0.9143,-1.87437 0.1371,-0.45717 0.5486,-0.65146 1.8286,-0.85719 1.4058,-0.22858 1.6572,-0.36573 1.4515,-0.80003 -0.1143,-0.25144 -1.3943,-1.3372097 -3.0973,-2.6058397 -0.6743,-0.50288 -0.7772,-0.5486 -1.3715,-0.5486 -0.3543,0 -0.9486,0.08 -1.3029,0.17144 -0.3657,0.0914 -0.8,0.17143 -0.9715,0.17143 -0.16,0 -0.6971,0.08 -1.1886,0.1943 -0.8229,0.17144 -0.9143,0.17144 -1.3829,-0.0114 -0.6629,-0.25144 -1.9087,-1.37149 -1.9087,-1.71437 0,-0.40002 0.2286,-0.61717 1.4401,-1.37149 1.5544,-0.97148 1.5544,-1.23435 -0.023,-1.77152 -0.3771,-0.12572 -0.96,-0.34287 -1.3029,-0.48002 -1.7486,-0.67432 -2.903,-0.57145 -4.2859,0.38859 -0.2514,0.17144 -0.64,0.43431 -0.8572,0.59432 -0.88,0.60574 -1.3829,0.76575 -2.3544,0.75432 -1.3715,0 -2.3315,-0.42288 -2.3315,-1.01719 0,-0.30859 0.2743,-0.70861 1.2229,-1.77152 0.64,-0.70859999 0.7657,-1.13147999 0.4,-1.32576989 -0.2171,-0.1143 -3.0058,0.0229 -3.3716,0.1599999 -0.1028,0.0457 -0.3429,0.0343 -0.5143,-0.0343 -0.4,-0.1600099 -3.3944,-0.2514399 -4.3659,-0.1485799 z"
     id="path835"
     style="fill:#000000;stroke:none;stroke-width:0.0114291" />
  <path
     d="m 30.995799,7.5523673 c -0.046,0.0457 -0.08,0.25144 -0.08,0.46859 0,0.36573 -0.012,0.37716 -0.3086,0.29716 -0.1829,-0.0457 -1.1658,-0.08 -2.2058,-0.0686 -1.4401,0.0114 -2.1259,0.0686 -2.9145,0.24001 -1.5772,0.36574 -2.0344,0.48003 -2.1715,0.58289 -0.057,0.0457 -0.365701,0.18287 -0.685701,0.29716 -1.2801,0.46859 -3.3031,1.7372197 -4.8003,3.0172797 -1.0286,0.89147 -2.811499,2.68585 -3.348699,3.38302 -0.2857,0.37716 -0.56,0.70861 -0.5943,0.74289 -0.034,0.0343 -0.422901,0.59432 -0.868601,1.25721 -0.8686,1.28006 -1.6115,2.67441 -1.9316,3.60017 -0.1028,0.30859 -0.24,0.67432 -0.2971,0.80004 -0.32,0.68574 -0.9371995,3.26872 -1.1543995,4.80023 -0.16,1.1772 -0.16,6.24029 0,7.42892 0.08,0.50288 0.2172,1.30292 0.3086,1.77152 0.091,0.46859 0.2514995,1.26863 0.3428995,1.77151 0.091,0.50288 0.2514,1.24577 0.3429,1.65722 0.1028,0.41145 0.2171,0.92576 0.2743,1.14291 0.4,1.81723 1.4629,3.2573 3.9087,5.3374 0.5258,0.44574 1.0629,0.91433 1.1887,1.02862 0.1371,0.11429 0.5714,0.49145 0.9714,0.83433 0.4115,0.34287 0.7658,0.65146 0.8001,0.68574 0.2286,0.26287 2.0344,1.77152 2.6858,2.24011 2.0915,1.54293 3.4402,1.87437 6.6289,1.64579 2.0001,-0.14858 4.1031,-0.32001 4.148801,-0.33144 0.011,-0.0114 0.023,-0.13715 0.023,-0.28573 0,-0.37716 -0.2857,-0.45716 -1.1657,-0.29716 -1.0172,0.18287 -6.4803,0.21716 -6.8461,0.0343 -0.1486,-0.08 -0.5257,-0.25144 -0.8343,-0.38859 -0.6057,-0.26287 -1.3258,-0.72003 -2.2058,-1.42864 -0.56,-0.44573 -2.4001,-2.04581 -2.6059,-2.26296 -0.057,-0.0686 -0.7314,-0.64003 -1.4857,-1.26864 -1.7373,-1.45149 -3.2573,-2.94871 -3.6574,-3.58874 -0.5828,-0.93719 -1.0172,-2.32011 -1.3257,-4.18306 -0.057,-0.37716 -0.16,-0.83432 -0.2172,-1.02862 -0.5714,-1.85151 -0.9600005,-6.92604 -0.6972,-9.13186 0.2743,-2.26297 0.5372,-3.90876 0.6858,-4.18306 0.057,-0.10286 0.1371,-0.3543 0.1828,-0.57145 0.4229,-2.01153 2.0916,-5.22311 3.6574,-7.05177 0.068,-0.0686 0.24,-0.29716 0.4,-0.50288 0.7086,-0.93719 3.4744,-3.49731 4.8116,-4.44593 0.971499,-0.68574 2.880199,-1.6343597 3.8974,-1.9429497 0.4571,-0.13714 1.0972,-0.33144 1.4057,-0.4343 0.4572,-0.14858 1.1201,-0.1943 3.2345,-0.20573 1.4629,-0.0114 2.6973,-0.0571 2.743,-0.10286 0.034,-0.0343 0.011,-0.17143 -0.069,-0.28573 -0.1143,-0.19429 -0.091,-0.22858 0.2514,-0.28572 0.3543,-0.0686 0.811501,-0.0343 3.177301,0.27429 3.6574,0.48003 7.874699,2.3886897 10.891999,4.9488097 2.2858,1.93152 4.4688,4.76594 5.6345,7.29178 0.2172,0.46859 0.5143,1.12005 0.6629,1.4515 0.148601,0.32001 0.2743,0.64003 0.2743,0.69717 0,0.0572 0.16,0.58289 0.3429,1.1772 0.4457,1.3715 0.6629,2.58298 0.9143,4.99453 0.091,0.91433 0.08,1.57721 -0.057,3.02871 -0.1029,1.01719 -0.2286,2.0001 -0.2743,2.19439 -0.057,0.18287 -0.1372,0.57146 -0.1829,0.85719 -0.091,0.69717 -0.799999,2.92585 -1.234299,3.8859 -0.7658,1.72579 -1.1658,2.44583 -2.080101,3.7716 -1.9773,2.86871 -4.445999,5.15454 -7.3147,6.77747 -3.063,1.71437 -6.2288,2.64013 -9.9433,2.903 l -1.2572,0.0914 -0.034,0.36573 c -0.046,0.50288 0.16,0.53717 2.0115,0.32002 3.840201,-0.44574 5.7603,-1.00577 8.6519,-2.46869 1.4286,-0.72004 1.7715,-0.93719 3.0287,-1.84009 1.2458,-0.9029 1.3715,-1.01719 2.8116,-2.4344 2.2515,-2.21725 3.863,-4.65165 5.0516,-7.60037 0.9258,-2.32011 1.3144,-3.98876 1.5658,-6.70889 0.148601,-1.65722 0.148601,-2.06867 0,-3.77161 -0.1028,-1.0629 -0.251399,-2.22867 -0.3429,-2.61726 -0.091,-0.37716 -0.171399,-0.77718 -0.171399,-0.88005 0,-0.11429 -0.046,-0.28572 -0.102801,-0.40001 -0.069,-0.10287 -0.217199,-0.58289 -0.354399,-1.05148 -0.6628,-2.36583 -2.3886,-5.57741 -4.125901,-7.65751 -1.5429,-1.85152 -3.4973,-3.58874 -5.4974,-4.86881 -0.7886,-0.50288 -3.188699,-1.7600797 -3.3601,-1.7600797 -0.057,0 -0.24,-0.0686 -0.4,-0.16001 -0.1715,-0.08 -0.6858,-0.2743 -1.143,-0.41144 -0.4686,-0.13715 -1.1543,-0.35431 -1.5315,-0.4686 -0.3771,-0.12572 -1.04,-0.2743 -1.4857,-0.33144 -0.4344,-0.0686 -1.0515,-0.16001 -1.3715,-0.21716 -0.7886,-0.14857 -3.0745,-0.26287 -3.1773,-0.17143 z"
     id="path837"
     style="fill:#000000;stroke:none;stroke-width:0.0114291" />
  <path
     d="m 28.3442,12.066867 c -0.3772,0.0457 -0.9715,0.17143 -1.3143,0.2743 -0.3429,0.10286 -0.8115,0.22858 -1.0287,0.28572 -0.3771,0.0914 -1.005701,0.33145 -1.5429,0.57146 -3.6344,1.63436 -6.6174,3.76018 -8.2404,5.886 -0.4571,0.60574 -1.0743,1.62293 -1.0743,1.79437 0,0.0686 -0.091,0.33144 -0.2172,0.59431 -0.4686,1.04005 -1.0743,3.37159 -1.2686,4.92595 -0.3086,2.44583 -0.3886,4.27449 -0.2514,6.08029 0.2057,2.82299 0.6171,5.70313 0.8571,5.93171 0.046,0.0457 0.08,0.18287 0.08,0.30859 0,0.37716 0.5372,1.49721 1.2344,2.59441 0.56,0.86861 2.4801,2.75442 3.8516,3.78304 2.3201,1.76008 3.623,2.61726 4.8459,3.21158 1.0744,0.52574 0.9372,0.51431 4.8231,0.45716 2.0916,-0.0229 2.1373,-0.0229 2.1944,-0.2743 0.1486,-0.53717 0.034,-0.56002 -3.223,-0.52574 l -3.0401,0.0343 -0.6858,-0.38859 c -1.8858,-1.05148 -5.3259,-3.60017 -6.6974,-4.96024 -1.4744,-1.46292 -2.5716,-3.26872 -2.7887,-4.61736 -0.046,-0.24001 -0.1258,-0.56003 -0.1829,-0.72003 -0.046,-0.16001 -0.1486,-0.77718 -0.2172,-1.3715 -0.057,-0.59431 -0.16,-1.41721 -0.2285,-1.82866 -0.1486,-0.97147 -0.1601,-5.54312 0,-6.57174 0.5028,-3.44016 0.9714,-5.26882 1.7257,-6.74318 0.3886,-0.73146 1.1658,-1.79437 1.7716,-2.41154 0.9714,-0.96005 3.2687,-2.65156 4.5602,-3.34873 0.2514,-0.13715 0.5371,-0.28573 0.6286,-0.3543 0.1486,-0.0914 1.5201,-0.73147 2.2287,-1.02862 0.1257,-0.0572 0.5943,-0.20573 1.0286,-0.34288 0.4457,-0.12572 0.96,-0.29716 1.1429,-0.36573 0.1943,-0.0686 1.1429,-0.14858 2.1372,-0.17144 1.6915,-0.0571 1.7944,-0.0686 1.8516,-0.29715 0.1142,-0.44574 -0.1143,-0.53717 -1.2344,-0.52574 -0.5714,0.0114 -1.3486,0.0571 -1.7258,0.11429 z"
     id="path839"
     style="fill:#000000;stroke:none;stroke-width:0.0114291" />
  <path
     d="m 26.858399,15.655607 c -1.2115,0.30859 -1.2343,0.30859 -2.3429,0.83433 -0.7772,0.36573 -1.6687,0.93718 -2.3887,1.55436 -0.537199,0.45716 -2.3659,2.29725 -2.6173,2.64012 -1.5658,2.11439 -2.0687,3.05158 -2.5944,4.85738 -0.9143,3.08586 -0.9829,5.53169 -0.285699,9.31473 0.3886,2.12581 0.697099,3.26872 1.0972,4.0459 0.217099,0.43431 1.4972,1.77152 2.4344,2.53727 0.3428,0.2743 0.6743,0.5486 0.7429,0.61717 0.068,0.0572 0.331399,0.29716 0.5943,0.51431 0.2514,0.21715 0.765699,0.66289 1.131499,0.99433 2.0343,1.76009 3.394401,2.25154 5.4745,2.0001 0.5943,-0.08 1.4629,-0.13715 1.9429,-0.13715 1.0744,0 1.2115,-0.0572 1.2115,-0.48002 v -0.34288 l -0.6514,0.0686 c -0.3658,0.0343 -1.5087,0.0914 -2.5487,0.13715 -1.5772,0.0571 -1.9773,0.0457 -2.4344,-0.11429 -0.8115,-0.2743 -1.7487,-0.91433 -2.9373,-1.97724 -0.2172,-0.1943 -0.8343,-0.73146 -1.3715,-1.18863 -1.5315,-1.30292 -2.5144,-2.28582 -2.9144,-2.90299 -0.3429,-0.5486 -0.6401,-1.4515 -0.8572,-2.6287 -0.057,-0.32002 -0.1486,-0.80004 -0.2057,-1.08577 -0.3429,-1.6115 -0.4115,-2.27439 -0.4115,-4.17163 0,-1.95437 0.2057,-3.79446 0.5029,-4.54878 0.046,-0.13715 0.2057,-0.61718 0.3429,-1.05148 0.8457,-2.73156 3.5087,-5.92028 6.4003,-7.68037 1.7486,-1.05148 4.0459,-1.55436 5.966,-1.30292 0.7543,0.10286 0.9715,0.10286 1.0857,-0.0229 0.2058,-0.20572 0.069,-0.52574 -0.2743,-0.66289 -0.548499,-0.20572 -2.983,-0.10286 -4.0916,0.18287 z"
     id="path841"
     style="fill:#000000;stroke:none;stroke-width:0.0114291" />
  <path
     d="m 27.3384,18.055727 c -2.7658,0.60574 -5.6802,2.97157 -7.6346,6.17172 -0.4,0.66289 -1.0515,2.46869 -1.348601,3.76018 -0.2058,0.84575 -0.285799,3.74875 -0.1372,4.92595 0.114301,0.93718 0.1943,1.39435 0.571501,3.23444 0.377099,1.87437 0.674299,2.29725 3.040099,4.35449 0.8115,0.70861 1.668701,1.46293 1.8858,1.65722 0.5486,0.50288 1.3258,1.01719 2.0001,1.33721 0.5486,0.26287 0.6515,0.2743 2.8573,0.24001 1.2572,-0.0114 2.3772,-0.0571 2.4915,-0.0914 0.1258,-0.0457 0.1943,-0.18287 0.1943,-0.41145 v -0.34287 l -0.822899,0.0686 c -2.5829,0.20572 -3.7259,0.21715 -4.217301,0.0229 -0.719999,-0.29716 -1.5429,-0.86861 -2.857299,-2.02295 -3.5659,-3.12015 -3.5887,-3.14301 -4.0688,-5.70313 -0.08,-0.4686 -0.2171,-1.14292 -0.2857,-1.48579 -0.08,-0.3543 -0.1371,-1.6115 -0.1371,-2.85728 0,-1.92009 0.046,-2.36583 0.2628,-3.2573 0.1372,-0.57145 0.2972,-1.12005 0.3658,-1.22291 0.057,-0.11429 0.102799,-0.26287 0.102799,-0.33145 0,-0.16 0.8001,-1.81723 0.9715,-2.00009 0.069,-0.0686 0.1943,-0.25144 0.2857,-0.38859 0.3429,-0.51431 1.1772,-1.55436 1.5315,-1.87438 0.1943,-0.18286 0.6172,-0.56002 0.9258,-0.85718 0.8686,-0.80004 1.7829,-1.37149 3.0059,-1.87438 l 1.1086,-0.45716 1.9429,-0.0114 c 1.7144,-0.0114 1.943,-0.0343 1.977301,-0.20572 0.023,-0.10287 -0.08,-0.26287 -0.2286,-0.36574 -0.2057,-0.14857 -0.5486,-0.18286 -1.691501,-0.17143 -0.788599,0.0114 -1.725799,0.08 -2.091599,0.16001 z"
     id="path843"
     style="fill:#000000;stroke:none;stroke-width:0.0114291" />
  <path
     d="m 29.087099,20.741567 c -0.091,0.0571 -0.2972,0.11429 -0.4572,0.11429 -0.16,0 -0.491399,0.10286 -0.742899,0.22858 -0.2514,0.12572 -0.525701,0.21715 -0.594301,0.22858 -0.4114,0.0114 -2.948699,1.62294 -3.748699,2.36583 -1.0172,0.96005 -1.7487,2.2744 -1.943001,3.47445 -0.046,0.2743 -0.16,0.78861 -0.262799,1.13148 -0.2858,1.00577 -0.240101,4.61737 0.08,6.17173 0.1371,0.66289 0.3314,1.40578 0.4343,1.65722 0.4343,1.02862 1.417201,2.09153 3.0058,3.26873 0.411501,0.30858 0.800101,0.59431 0.8572,0.65146 0.069,0.0457 0.3886,0.25144 0.7086,0.45716 1.1086,0.67432 1.257201,0.70861 3.0402,0.65146 0.8914,-0.0229 1.6686,-0.0457 1.7143,-0.0457 0.057,-0.0114 0.08,-0.14857 0.057,-0.33144 l -0.034,-0.30859 h -1.7144 l -1.714301,-0.0114 -0.674399,-0.36574 c -0.8114,-0.45716 -2.6858,-1.87437 -3.3716,-2.54869 -0.640001,-0.64003 -1.188601,-1.48578 -1.417201,-2.21725 -0.468599,-1.49721 -0.6171,-4.67451 -0.32,-6.62889 0.2172,-1.48578 0.7429,-2.97157 1.2915,-3.68017 0.9943,-1.30292 3.3145,-2.81156 5.2345,-3.40588 0.7544,-0.24001 3.223101,-0.34287 4.126001,-0.18286 0.822899,0.14857 1.554299,0.33144 1.794299,0.45716 0.1029,0.0571 0.457201,0.22858 0.7658,0.36573 1.36,0.61717 3.040101,2.19439 3.7144,3.49731 0.1601,0.29716 0.3315,0.61717 0.4001,0.70861 0.1371,0.20572 0.354301,0.81146 0.5943,1.72579 0.2743,1.02862 0.2628,3.10872 -0.012,4.17163 -0.96,3.70304 -4.0344,6.42316 -7.6689,6.7889 -0.7657,0.08 -1.0515,0.14858 -1.1658,0.30858 -0.1028,0.13715 -0.1143,0.24001 -0.034,0.32002 0.1371,0.13715 1.542901,0.10286 1.8286,-0.0457 0.1143,-0.0686 0.32,-0.11429 0.445701,-0.11429 0.2629,0 1.543,-0.40002 1.8973,-0.59431 0.1143,-0.0686 0.4457,-0.24002 0.72,-0.38859 0.7772,-0.41145 1.142899,-0.70861 2.148699,-1.71437 0.9715,-0.99433 1.5543,-1.85152 1.977201,-2.96014 0.1486,-0.37716 0.3086,-0.77718 0.3658,-0.88004 0.1943,-0.37717 0.3885,-1.77152 0.3885,-2.77728 0,-1.02862 -0.2285,-2.64013 -0.4,-2.85728 -0.046,-0.0686 -0.1486,-0.32001 -0.2171,-0.57145 -0.3429,-1.26864 -1.7944,-3.22302 -3.1316,-4.21735 -0.7886,-0.59431 -2.0572,-1.32578 -2.2744,-1.32578 -0.069,0 -0.2743,-0.08 -0.4686,-0.16 -0.2057,-0.0914 -0.6515,-0.22859 -0.994301,-0.30859 -0.8344,-0.17144 -4.0002,-0.26287 -4.2288,-0.10286 z"
     id="path845"
     style="fill:#000000;stroke:none;stroke-width:0.0114291" />
  <path
     d="m 29.7728,23.713137 c -1.7029,0.38859 -2.640101,0.81147 -3.6801,1.62293 -1.074401,0.85719 -1.531501,1.55436 -1.8858,2.89157 -0.171501,0.65146 -0.2058,1.23434 -0.2058,3.20015 v 2.40012 l 0.400099,0.78861 c 0.960001,1.93152 3.074401,3.4173 5.6917,4.01162 0.96,0.21715 1.1657,0.18286 1.1657,-0.21716 0,-0.21715 -0.068,-0.30858 -0.251399,-0.34287 -2.263,-0.43431 -3.703,-1.08577 -4.811701,-2.17153 -1.4629,-1.46293 -1.9086,-3.23444 -1.5086,-6.06886 0.2057,-1.53151 0.4229,-2.30869 0.8229,-2.93729 0.2857,-0.45716 1.6686,-1.55436 2.3201,-1.84009 0.6629,-0.27429 1.8858,-0.65145 2.1601,-0.65145 0.1372,0 0.354301,-0.0571 0.48,-0.12573 0.1715,-0.0914 0.2743,-0.08 0.4,0.0229 0.091,0.0686 0.3543,0.17144 0.5944,0.21716 0.2285,0.0571 0.7086,0.14857 1.0514,0.21715 1.017201,0.19429 2.000101,0.77718 2.7887,1.62293 0.3886,0.41145 0.7544,0.88005 0.8344,1.02862 0.354301,0.73147 0.502801,1.14292 0.662901,1.95438 0.159999,0.81147 0.159999,0.96005 -0.012,1.82866 -0.457099,2.33154 -1.9315,3.93162 -4.194499,4.59451 -0.834301,0.24001 -1.5772,0.22858 -2.457201,-0.0343 -1.3487,-0.41145 -2.2516,-1.12005 -2.7659,-2.1601 -0.239999,-0.4686 -0.2514,-0.61718 -0.2057,-2.06867 0.08,-2.21725 0.3543,-2.74299 1.863,-3.54303 0.4,-0.21715 0.9029,-0.37716 1.3257,-0.42288 0.720101,-0.08 1.0515,-0.28572 0.9944,-0.60574 -0.08,-0.3543 -1.5544,-0.14858 -2.605899,0.36573 -0.5143,0.25144 -1.2915,0.86861 -1.600001,1.31435 -0.468599,0.6286 -0.6858,1.64579 -0.6858,3.20015 0,0.99434 0.057,1.47436 0.2057,1.87438 0.4115,1.12005 1.6115,2.14867 2.9945,2.58298 1.7486,0.5486 1.6458,0.53717 2.548701,0.32001 1.1772,-0.2743 1.759999,-0.51431 2.4686,-0.97147 1.1544,-0.74289 2.0459,-1.87438 2.583,-3.26873 0.3315,-0.8229 0.3315,-3.39445 0.011,-4.22877 -0.8228,-2.12582 -2.8687,-3.84019 -4.9716,-4.1602 -0.457201,-0.08 -0.9372,-0.18287 -1.0515,-0.24001 -0.240001,-0.13715 -0.8915,-0.12572 -1.4744,0 z"
     id="path847"
     style="fill:#000000;stroke:none;stroke-width:0.0114291" />
  <path
     d="m 30.3557,29.450547 c -0.6171,0.13715 -1.4286,0.9029 -1.5315,1.4515 -0.1143,0.53717 -0.1028,1.44007 0.023,1.74866 0.171399,0.44573 0.719999,0.96004 1.2915,1.22291 0.6286,0.28573 0.9257,0.29716 1.1086,0.08 0.2286,-0.2743 -0.046,-0.64003 -0.4686,-0.64003 -0.4572,0 -1.0743,-0.41145 -1.2458,-0.83433 -0.1714,-0.41145 -0.046,-1.64579 0.1829,-1.90866 0.091,-0.10286 0.4572,-0.28573 0.8115,-0.41145 0.7429,-0.25144 0.9372,-0.42288 0.7314,-0.67432 -0.16,-0.19429 -0.1943,-0.19429 -0.9029,-0.0343 z"
     id="path849"
     style="fill:#000000;stroke:none;stroke-width:0.0114291" />
  <path
     d="m 79.3952,15.226817 c -0.016,0.0643 -0.032,3.87331 -0.048,8.43771 l -0.032,8.32521 h 4.8698 4.8537 v -0.98038 -0.96431 l -3.6966,0.0322 c -2.0411,0.0161 -3.7447,-0.0161 -3.792901,-0.0643 -0.064,-0.0643 -0.064,-7.23233 0,-13.77356 l 0.016,-1.04467 -1.076801,-0.0482 c -0.610699,-0.0321 -1.0929,0.0161 -1.0929,0.0804 z"
     id="path851"
     style="fill:#000000;stroke:none;stroke-width:0.0160719" />
  <path
     d="m 98.070697,15.789327 c -0.1768,0.38573 -0.4661,1.09289 -0.675,1.57504 -0.192898,0.48216 -0.530398,1.23754 -0.723198,1.68755 -0.209,0.43394 -0.7072,1.63932 -1.1251,2.65185 -0.4178,1.01253 -0.9803,2.29827 -1.2214,2.86079 -0.2572,0.54644 -0.4661,1.09288 -0.4661,1.20538 0,0.0964 -0.224999,0.57859 -0.4822,1.06075 -0.2732,0.48215 -0.4821,0.93216 -0.4821,1.01252 0,0.0804 -0.4018,0.98038 -0.884,1.99291 -0.4821,1.0286 -0.8839,1.92862 -0.8839,2.00898 0,0.225 2.1536,0.17679 2.4268,-0.0643 0.2411,-0.19286 0.9643,-1.80004 1.5269,-3.40723 0.1607,-0.45001 0.3375,-0.88395 0.4018,-0.96431 0.08,-0.0964 1.6071,-0.16072 4.066098,-0.14464 3.696603,0.0161 3.969803,0.0321 4.194803,0.32143 0.1286,0.16072 0.2411,0.43394 0.2411,0.57859 0,0.16072 0.1125,0.54644 0.2571,0.88395 0.1447,0.33751 0.3857,0.86788 0.5143,1.17324 0.7072,1.68755 0.6911,1.68755 1.8804,1.73576 1.2536,0.0482 1.4947,-0.0804 1.1893,-0.65894 -0.3053,-0.57859 -0.9321,-1.86434 -1.1732,-2.44292 -0.1125,-0.27322 -0.434,-0.96431 -0.7072,-1.57504 -0.2893,-0.59466 -0.5143,-1.15717 -0.5143,-1.23753 0,-0.0804 -0.3214,-0.83574 -0.7232,-1.67148 -0.4018,-0.8518 -0.7232,-1.59111 -0.7232,-1.65539 0,-0.0482 -0.209,-0.56252 -0.4822,-1.12503 -0.2571,-0.54644 -0.4822,-1.09289 -0.4822,-1.17325 0,-0.0964 -0.225,-0.65894 -0.4982,-1.2536 -0.2893,-0.59466 -0.6107,-1.33396 -0.7554,-1.63933 -0.1285,-0.30536 -0.3375,-0.77145 -0.45,-1.01252 -0.1285,-0.25715 -0.225,-0.56252 -0.225,-0.67502 0,-0.49823 -0.4982,-0.72323 -1.607203,-0.72323 h -1.0928 z m 1.8001,2.08934 c 0.144603,0.19287 0.257103,0.53037 0.257103,0.72324 0,0.19286 0.096,0.59465 0.225,0.88395 0.1286,0.28929 0.3536,0.8518 0.4982,1.2536 0.3376,0.88395 0.6911,1.70361 0.9804,2.29827 0.1286,0.25715 0.225,0.53037 0.225,0.6268 0,0.0964 0.225,0.53038 0.4983,0.98039 0.3214,0.5143 0.4339,0.8518 0.3375,0.94823 -0.209,0.20894 -6.428801,0.22501 -6.637701,0.0161 -0.08,-0.0804 -0.032,-0.32144 0.096,-0.59466 0.9965,-1.91255 1.366098,-2.73221 1.366098,-3.05365 0,-0.12857 0.097,-0.30537 0.225,-0.4018 0.1286,-0.0964 0.2572,-0.38572 0.3054,-0.6268 0.048,-0.24108 0.2893,-1.01252 0.5143,-1.71968 0.2411,-0.70717 0.4661,-1.38218 0.4982,-1.49469 0.08,-0.28929 0.3375,-0.24107 0.6108,0.16072 z"
     id="path853"
     style="fill:#000000;stroke:none;stroke-width:0.0160719" />
  <path
     d="m 110.3335,15.275027 c -0.048,0.0804 -0.096,3.85725 -0.096,8.3895 v 8.24486 l 1.2375,0.0482 1.2376,0.0482 -0.096,-1.09289 c -0.064,-0.59466 -0.1285,-2.31434 -0.1446,-3.79295 -0.048,-3.08579 -0.064,-3.05365 1.2214,-2.84472 0.5947,0.0804 0.9001,0.24108 1.1894,0.57859 0.2089,0.25715 1.6875,1.96076 3.2786,3.79295 2.7804,3.1983 2.9251,3.34294 3.4876,3.34294 0.3214,0 0.83573,0.0482 1.1411,0.0804 0.30537,0.0482 0.67502,0.0161 0.80359,-0.0643 0.19287,-0.12858 0.0322,-0.36966 -0.83573,-1.25361 -1.06076,-1.09288 -2.58756,-2.82864 -4.38766,-5.03048 -0.5303,-0.64287 -1.2696,-1.4304 -1.6393,-1.7679 -0.6268,-0.54645 -0.9161,-1.12503 -0.5625,-1.12503 0.08,0 0.4179,-0.27322 0.7715,-0.61073 0.6589,-0.6268 0.9803,-0.98038 3.359,-3.64831 0.7875,-0.88395 1.7357,-1.89648 2.12146,-2.26613 0.38571,-0.35358 0.69107,-0.78752 0.69107,-0.94824 0,-0.25714 -0.12857,-0.27322 -1.23753,-0.20893 -1.3822,0.0964 -1.0768,-0.1125 -3.1822,2.29827 -0.5304,0.61073 -1.109,1.26968 -1.2858,1.44647 -0.1928,0.17679 -0.7232,0.78752 -1.2053,1.3661 -0.4822,0.56252 -1.0447,1.22146 -1.2376,1.44647 -0.2089,0.20893 -0.3696,0.45001 -0.3696,0.49823 0,0.12857 -0.7233,0.41786 -1.3983,0.54644 -0.4018,0.0804 -0.5464,0.0321 -0.6429,-0.19286 -0.08,-0.16072 -0.096,-1.7679 -0.032,-3.66438 0.064,-2.18577 0.048,-3.43937 -0.048,-3.58402 -0.1929,-0.22501 -1.9929,-0.27322 -2.1376,-0.0322 z"
     id="path855"
     style="fill:#000000;stroke:none;stroke-width:0.0160719" />
  <path
     d="m 125.90714,15.307177 c -0.0321,0.0643 -0.0804,3.8251 -0.0804,8.35735 v 8.24486 l 5.23944,0.0482 5.22333,0.0321 v -0.96431 -0.98038 l -4.05009,0.0322 -4.06618,0.0321 -0.0482,-2.92507 -0.0322,-2.92508 3.23045,0.1125 c 3.58402,0.12858 3.51974,0.14465 3.51974,-0.90002 0,-1.10896 0.12857,-1.09288 -4.53227,-0.86788 l -2.21792,0.11251 v -2.86079 -2.84472 l 4.06619,0.0482 4.0501,0.0482 0.0482,-0.98038 0.0482,-0.98038 -5.15905,0.0161 c -2.84473,0.0161 -5.20729,0.0804 -5.23943,0.14465 z"
     id="path857"
     style="fill:#000000;stroke:none;stroke-width:0.0160719" />
  <path
     d="m 143.93974,15.242887 c -0.1125,0.19286 -0.0482,16.6665 0.0804,16.74685 0.0643,0.0482 0.59467,0.0482 1.18932,0.0322 l 1.07682,-0.0643 -0.0964,-1.22146 c -0.0482,-0.69109 -0.11251,-2.3947 -0.12859,-3.80902 l -0.0321,-2.5715 h 4.56439 4.58047 l -0.0643,3.80903 -0.0482,3.82509 h 1.22148 1.22145 l -0.0322,-8.40556 -0.0482,-8.3895 h -1.12503 -1.12503 l -0.0161,3.61616 c -0.0161,1.99291 -0.0322,3.68045 -0.0482,3.77688 -0.0161,0.0964 -1.6072,0.16072 -4.45191,0.14465 -3.58402,-0.0161 -4.46796,-0.0643 -4.5644,-0.24108 -0.0482,-0.12858 -0.0482,-1.78397 0.0161,-3.68045 0.0804,-2.45899 0.0643,-3.48759 -0.0643,-3.56795 -0.225,-0.14464 -2.00897,-0.14464 -2.10541,0 z"
     id="path859"
     style="fill:#000000;stroke:none;stroke-width:0.0160719" />
  <path
     d="m 165.9903,15.500037 c -1.81611,0.6268 -3.53581,2.0572 -4.29118,3.60009 -0.20893,0.41787 -0.46608,0.90003 -0.54644,1.07682 -0.24107,0.48215 -0.59466,2.45899 -0.59466,3.35901 0,5.28763 3.87332,8.91987 9.08059,8.51807 3.93759,-0.32143 6.75017,-3.03757 7.31268,-7.08768 0.32143,-2.34649 -0.0804,-4.46797 -1.20538,-6.23587 -1.04467,-1.63933 -2.23398,-2.58757 -4.03404,-3.21437 -1.55896,-0.54644 -4.14653,-0.56251 -5.72157,-0.0161 z m 5.25549,1.94469 c 0.93217,0.35358 2.2822,1.62326 2.76435,2.58757 1.09289,2.18577 0.96432,5.60907 -0.30536,7.53769 -0.61073,0.91609 -1.81612,2.00898 -2.25005,2.00898 -0.11251,0 -0.35359,0.1125 -0.51431,0.24108 -0.24107,0.17679 -0.77144,0.24107 -2.0572,0.24107 -1.60717,0 -1.81609,-0.0321 -2.66791,-0.46608 -1.73576,-0.86788 -2.61971,-2.04112 -3.15008,-4.13046 -0.86788,-3.35901 0.70716,-6.99125 3.47152,-8.06806 1.09288,-0.41787 3.48759,-0.4018 4.70904,0.0482 z"
     id="path861"
     style="fill:#000000;stroke:none;stroke-width:0.0160719" />
  <path
     d="m 180.11744,15.226817 c -0.0321,0.0804 -0.0161,2.909 0.0321,6.31623 l 0.0964,6.18766 0.46608,0.93216 c 0.59467,1.17325 1.88042,2.39471 3.10187,2.94115 0.69109,0.30537 1.30181,0.43394 2.37862,0.49823 3.24652,0.17679 5.57693,-1.20539 6.66981,-3.98582 0.32145,-0.80359 0.33752,-1.17324 0.36965,-6.89482 l 0.0322,-6.02693 -0.78752,-0.0482 c -1.62325,-0.0964 -1.47861,-0.61073 -1.41432,5.27156 0.0964,7.29662 -0.12858,8.1645 -2.49113,9.38595 -0.73931,0.36966 -3.06973,0.35359 -3.79295,-0.0321 -0.80359,-0.43394 -1.14111,-0.70716 -1.62325,-1.36611 -0.81968,-1.07681 -0.91611,-1.89647 -0.8679,-7.66626 0.0161,-2.87686 -0.0321,-5.31978 -0.0964,-5.43228 -0.12858,-0.20893 -1.96077,-0.27322 -2.07328,-0.0804 z"
     id="path863"
     style="fill:#000000;stroke:none;stroke-width:0.0160719" />
  <path
     d="m 199.45186,15.467897 c -1.0286,0.46608 -1.7679,1.15717 -2.36256,2.20184 -0.46608,0.78752 -0.53038,1.04467 -0.53038,2.07327 0,2.37863 1.2054,3.50366 5.0787,4.74119 0.46609,0.16072 0.9161,0.27322 1.01253,0.27322 0.36966,0 1.60718,1.06074 1.78397,1.51075 0.35358,1.01253 0.0482,2.37863 -0.69108,3.03758 -0.86787,0.75537 -1.09289,0.83573 -2.63579,0.83573 l -1.47859,-0.0161 -1.23755,-0.83573 c -0.675,-0.46609 -1.31788,-0.83574 -1.43039,-0.83574 -0.28929,0 -1.04466,0.91609 -1.04466,1.26968 0,0.78752 1.97683,1.92862 4.01795,2.29827 2.66793,0.48215 5.17514,-0.65895 6.23587,-2.81257 0.45001,-0.88395 0.5143,-1.20539 0.5143,-2.26613 0,-2.45899 -0.99645,-3.45545 -4.62868,-4.62869 -2.33042,-0.73931 -3.18223,-1.36611 -3.35901,-2.44292 -0.16072,-0.98038 0.19286,-1.73576 1.10895,-2.36256 0.75538,-0.49823 0.90002,-0.54644 2.04113,-0.53037 1.15716,0 1.28574,0.0482 2.2822,0.67502 0.64288,0.41787 1.17324,0.64287 1.33396,0.57858 0.28929,-0.1125 0.90002,-1.04467 0.90002,-1.3661 -0.0161,-0.33751 -1.09289,-1.04467 -2.1697,-1.41432 -1.31788,-0.46609 -3.69652,-0.45001 -4.74119,0.0161 z"
     id="path865"
     style="fill:#000000;stroke:none;stroke-width:0.0160719" />
  <path
     d="m 209.57712,23.584177 v 8.38949 l 4.95012,0.0482 c 2.71614,0.0321 5.06263,0 5.20728,-0.0643 0.35358,-0.16072 0.32144,-1.70361 -0.0322,-1.86433 -0.12857,-0.0643 -1.86433,-0.0804 -3.85724,-0.0322 -1.9929,0.0482 -3.69652,0.0643 -3.79295,0.0322 -0.11249,-0.0322 -0.16072,-0.98038 -0.16072,-2.89293 l 0.0161,-2.84472 h 3.21436 3.21437 l 0.0482,-0.78752 c 0.0321,-0.43394 -0.0161,-0.8518 -0.11251,-0.94824 -0.19287,-0.19286 -3.10186,-0.16071 -4.91798,0.0322 -0.61074,0.0804 -1.20539,0.0643 -1.30182,0 -0.11249,-0.0964 -0.17679,-1.12503 -0.17679,-2.87686 l -0.0161,-2.74829 3.90545,0.0322 c 2.13756,0.0161 3.96974,-0.0161 4.06617,-0.0804 0.20893,-0.12857 0.25715,-1.35003 0.0643,-1.63933 -0.0804,-0.12857 -1.62326,-0.17679 -5.20728,-0.16072 l -5.11084,0.0161 z"
     id="path867"
     style="fill:#000000;stroke:none;stroke-width:0.0160719" />
  <path
     d="m 113.2104,39.205997 c -1.0608,0.27322 -1.9286,0.99645 -2.6358,2.18577 -0.3375,0.56251 -0.3857,0.83573 -0.3857,2.1697 0,1.43039 0.032,1.57504 0.5304,2.41077 0.5785,0.96431 0.7553,1.12503 1.7036,1.63933 0.9964,0.53037 2.7804,0.49822 3.9054,-0.0804 0.9161,-0.48216 1.1411,-0.80359 0.884,-1.22146 -0.2572,-0.4018 -0.6429,-0.38572 -1.2376,0.0643 -0.7714,0.57858 -1.9286,0.70716 -2.7643,0.27322 -1.2054,-0.61073 -1.8322,-1.70362 -1.8322,-3.15008 0.016,-1.43039 0.7232,-2.53935 1.9608,-3.06972 0.8678,-0.35358 1.6071,-0.30537 2.6036,0.19286 0.7554,0.36965 0.9161,0.4018 1.1411,0.20893 0.7714,-0.64287 -0.5464,-1.62325 -2.3143,-1.70361 -0.5786,-0.0321 -1.2858,0.0161 -1.559,0.0804 z"
     id="path869"
     style="fill:#000000;stroke:none;stroke-width:0.0160719" />
  <path
     d="m 146.94517,39.189927 -2.44291,0.0482 -0.0482,4.13046 c -0.0322,2.26613 -0.0322,4.21082 0,4.32333 0.0322,0.12857 0.8518,0.19286 2.57148,0.24107 1.38218,0.0322 2.61971,0.0322 2.73222,0 0.0964,-0.0321 0.19286,-0.27322 0.19286,-0.53037 0,-0.54644 0.0964,-0.53037 -2.33041,-0.54644 h -1.92863 l -0.0482,-1.43039 -0.0482,-1.43039 1.57505,0.0804 c 0.86787,0.0482 1.67146,0.0482 1.78397,0.0161 0.0964,-0.0482 0.19285,-0.27322 0.19285,-0.53037 0,-0.25715 -0.0964,-0.48216 -0.19285,-0.53037 -0.11251,-0.0322 -0.9161,-0.0322 -1.76791,0.0161 l -1.57504,0.0804 v -1.39825 c 0,-0.98039 0.0643,-1.38218 0.20894,-1.39825 0.0964,-0.0161 1.06074,-0.0322 2.12148,-0.0482 l 1.92862,-0.0161 0.0482,-0.43394 c 0.0321,-0.28929 -0.0482,-0.46608 -0.24109,-0.56251 -0.16071,-0.0643 -1.38218,-0.11251 -2.73222,-0.0804 z"
     id="path871"
     style="fill:#000000;stroke:none;stroke-width:0.0160719" />
  <path
     d="m 152.21674,39.205997 c -0.25716,0.16072 -0.32145,8.45378 -0.0643,8.71093 0.1125,0.11251 0.36964,0.14465 0.62678,0.0804 l 0.43396,-0.1125 -0.11251,-2.76436 c -0.0643,-1.52682 -0.12858,-2.909 -0.14465,-3.08579 -0.0643,-0.64287 0.48215,-0.43394 1.01253,0.4018 0.43394,0.67501 1.57503,2.20184 2.25005,3.0215 0.0964,0.0964 0.54645,0.67502 0.99647,1.28575 0.45001,0.59466 0.94823,1.12503 1.10894,1.18931 0.69109,0.27323 0.70716,0.17679 0.70716,-4.29117 0,-4.56441 -0.0321,-4.78941 -0.77144,-4.46797 l -0.36966,0.17678 0.0643,3.15008 c 0.0643,2.63579 0.0322,3.15008 -0.16071,3.15008 -0.11251,0 -0.3536,-0.24107 -0.53037,-0.53037 -0.59467,-1.02859 -4.29119,-5.818 -4.56441,-5.9305 -0.16072,-0.0482 -0.36966,-0.0482 -0.48215,0.0161 z"
     id="path873"
     style="fill:#000000;stroke:none;stroke-width:0.0160719" />
  <path
     d="m 160.84731,39.238137 c -0.0804,0.0482 -0.12858,0.30537 -0.0964,0.56252 l 0.0482,0.46608 h 1.3179 c 0.70716,0 1.3661,0.0643 1.43039,0.12857 0.0804,0.0804 0.11251,1.78398 0.0804,3.79296 -0.0482,3.61616 -0.0482,3.66438 0.28929,3.76081 0.19287,0.0482 0.49823,0.0482 0.67502,0 0.35358,-0.0964 0.35358,-0.11251 0.27322,-3.84117 -0.0804,-3.1983 -0.0643,-3.76081 0.14465,-3.8251 0.12857,-0.0482 0.72323,-0.0482 1.31789,0 0.88394,0.0804 1.10896,0.0643 1.28574,-0.16072 0.16072,-0.19286 0.17679,-0.36965 0.0643,-0.61073 -0.14466,-0.32143 -0.24108,-0.3375 -3.40722,-0.35358 -1.80007,-0.0161 -3.32688,0.0322 -3.42332,0.0804 z"
     id="path875"
     style="fill:#000000;stroke:none;stroke-width:0.0160719" />
  <path
     d="m 176.80664,39.205997 c -0.28928,0.17679 -0.20892,0.35358 0.94824,2.10541 0.43394,0.65894 1.06074,1.63933 1.39826,2.1697 l 0.59465,0.96431 -0.0482,1.71968 c -0.0322,1.57504 -0.0161,1.71969 0.27321,1.81612 0.17679,0.0482 0.51431,0.0482 0.73931,-0.0161 l 0.41787,-0.0964 -0.0161,-1.83219 c -0.0161,-1.30182 0.0482,-1.91255 0.19288,-2.08934 0.1125,-0.14465 0.28928,-0.38572 0.38571,-0.54644 0.51429,-0.9161 1.47861,-2.41078 1.86434,-2.89293 0.24107,-0.32144 0.46608,-0.70716 0.49823,-0.86788 0.0643,-0.38573 -0.36965,-0.65895 -0.88396,-0.5143 -0.4018,0.0964 -0.54644,0.30536 -2.29828,3.55188 -0.19285,0.3375 -0.41786,0.65894 -0.48215,0.67501 -0.0803,0.0322 -0.41787,-0.48215 -0.75537,-1.10895 -1.2536,-2.41078 -1.59111,-2.94115 -1.84827,-3.05365 -0.38572,-0.14465 -0.72322,-0.14465 -0.98038,0.0161 z"
     id="path877"
     style="fill:#000000;stroke:none;stroke-width:0.0160719" />
  <path
     d="m 121.5838,40.138167 c -0.1768,0.51429 -0.4661,1.2536 -0.6589,1.65539 -0.1929,0.4018 -0.5143,1.18932 -0.7072,1.76791 -0.1929,0.57858 -0.45,1.20538 -0.5786,1.39825 -0.1286,0.19286 -0.225,0.43393 -0.225,0.53037 0,0.0804 -0.225,0.64287 -0.4982,1.22146 -0.5625,1.20538 -0.4982,1.44646 0.3857,1.28574 0.5786,-0.1125 0.659,-0.24107 1.1733,-1.94469 l 0.1446,-0.48215 h 1.91255 c 2.13756,0 1.97684,-0.0964 2.44291,1.39825 0.22503,0.70716 0.36966,0.93216 0.67504,1.01252 0.41786,0.0964 0.99645,-0.0321 0.99645,-0.24108 0,-0.14464 -0.86789,-2.16969 -1.12504,-2.61971 -0.0964,-0.14464 -0.27322,-0.6268 -0.41786,-1.04467 -0.14465,-0.41786 -0.49823,-1.33396 -0.78753,-2.04112 -0.28928,-0.70716 -0.65893,-1.62325 -0.81965,-2.05719 -0.25716,-0.73931 -0.2893,-0.75538 -0.93218,-0.75538 h -0.67499 z m 1.51077,1.7679 c 0.20893,0.61073 0.53037,1.39825 0.69109,1.7679 0.17678,0.36965 0.27322,0.75537 0.20893,0.85181 -0.14465,0.225 -2.53939,0.20893 -2.76439,-0.0161 -0.1446,-0.14464 -0.08,-0.41786 0.209,-1.07681 0.2089,-0.48215 0.3857,-0.93217 0.3857,-0.99645 0,-0.24108 0.65893,-1.60719 0.77144,-1.60719 0.0643,0 0.2893,0.48216 0.49823,1.07682 z"
     id="path879"
     style="fill:#000000;stroke:none;stroke-width:0.0160719" />
  <path
     d="m 128.35007,39.350637 c -0.0482,0.0804 -0.0804,2.02506 -0.0804,4.32333 l 0.0161,4.19475 0.38571,0.0964 c 0.83574,0.20893 0.94825,-0.0322 0.88395,-1.89648 -0.0321,-1.44646 0,-1.71968 0.20893,-1.80004 0.70718,-0.27322 1.14111,0.12857 2.97331,2.86078 0.54644,0.80359 0.93216,1.01253 1.55896,0.86788 0.48215,-0.12857 0.49823,-0.41787 0.0161,-0.91609 -0.20895,-0.20894 -0.61074,-0.70716 -0.9161,-1.10896 -0.2893,-0.40179 -0.75538,-0.94824 -1.01253,-1.23753 l -0.48216,-0.5143 0.53038,-0.28929 c 1.20538,-0.64288 1.73575,-1.60719 1.51076,-2.7965 -0.12858,-0.65895 -0.59466,-1.20539 -1.3822,-1.60718 -0.48214,-0.24108 -0.94822,-0.30537 -2.36255,-0.30537 -0.96431,0 -1.80004,0.0643 -1.84825,0.12857 z m 3.77687,1.23754 c 0.46608,0.24107 0.6268,0.53037 0.6268,1.12503 0,1.04466 -0.91609,1.75182 -2.31434,1.7679 h -0.81966 l -0.0482,-1.4304 c -0.0643,-1.94469 -0.0804,-1.92862 1.12502,-1.80004 0.54645,0.0643 1.18933,0.225 1.4304,0.33751 z"
     id="path881"
     style="fill:#000000;stroke:none;stroke-width:0.0160719" />
  <path
     d="m 136.70743,39.366717 c -0.0482,0.0643 -0.0964,1.9929 -0.0964,4.27511 -0.0161,4.30725 0,4.41975 0.64286,4.41975 0.59467,0 0.67503,-0.24108 0.62682,-1.78397 l -0.0643,-1.51076 1.44647,-0.0804 c 1.28574,-0.0803 1.51075,-0.12857 2.05719,-0.54644 1.70362,-1.30182 1.51076,-3.63223 -0.38572,-4.59654 -0.49823,-0.25715 -0.93217,-0.32144 -2.37864,-0.32144 -0.9643,0 -1.80004,0.0643 -1.84824,0.14465 z m 3.77687,1.23753 c 0.5143,0.25715 0.6268,0.5143 0.6268,1.47861 0,0.96431 -0.48216,1.41432 -1.67148,1.55897 -1.62325,0.20893 -1.62325,0.20893 -1.67146,-1.51076 -0.0643,-1.89647 0.0161,-1.9929 1.31788,-1.84826 0.54645,0.0643 1.17325,0.20894 1.39826,0.32144 z"
     id="path883"
     style="fill:#000000;stroke:none;stroke-width:0.0160719" />
  <path
     d="m 169.54218,39.254207 c -0.0161,0.0322 -0.0482,1.97684 -0.0643,4.35547 l -0.0321,4.29118 0.36965,0.0964 c 0.61074,0.16072 1.01253,-0.17679 0.94824,-0.78752 -0.12856,-1.06074 -0.20892,-2.60363 -0.12856,-2.81257 0.0804,-0.20893 0.81966,-0.25715 1.10894,-0.0643 0.24109,0.14465 1.67148,2.08934 1.67148,2.25006 0,0.0804 0.27322,0.43394 0.61072,0.80359 0.48215,0.5143 0.73932,0.67502 1.14111,0.67502 0.72323,0 0.80359,-0.38572 0.225,-1.01253 -0.25714,-0.28929 -0.72323,-0.83573 -1.02858,-1.23753 -0.30538,-0.38572 -0.67503,-0.8518 -0.81968,-0.99645 -0.43393,-0.43394 -0.35357,-0.75538 0.24108,-1.0286 1.18932,-0.56251 1.65539,-1.94469 1.04467,-3.11793 -0.59466,-1.15718 -1.26968,-1.44647 -3.45544,-1.44647 -0.99646,0 -1.83219,0.0161 -1.83219,0.0321 z m 2.87686,1.07682 c 2.47507,0.48215 1.60717,3.23044 -1.0286,3.23044 -0.67501,0 -0.81967,-0.33751 -0.75537,-1.71969 0.0482,-0.69109 0.0964,-1.35003 0.12856,-1.46254 0.0804,-0.225 0.65895,-0.24107 1.65541,-0.0482 z"
     id="path885"
     style="fill:#000000;stroke:none;stroke-width:0.0160719" />
</svg>
